<svg width="74" height="35" viewBox="0 0 74 35" fill="none" xmlns="http://www.w3.org/2000/svg">
<path d="M54.0608 14.7263C51.2079 14.9759 48.9683 12.7681 48.6411 9.02867C48.3154 5.30539 50.1432 2.8067 52.9961 2.5571C55.849 2.3075 58.0668 4.45224 58.3926 8.17553C58.7197 11.9149 56.9137 14.4767 54.0608 14.7263ZM53.9846 13.8559C56.3056 13.6528 57.6725 11.4544 57.3933 8.26296C57.1141 5.07157 55.3933 3.22442 53.0723 3.42748C50.7512 3.63054 49.3612 5.74985 49.6404 8.94124C49.9197 12.1326 51.6636 14.059 53.9846 13.8559Z" fill="#091420"/>
<path d="M39.7207 7.18467L41.9772 6.98725C43.992 6.81098 45.0336 5.90777 44.8855 4.21536C44.7361 2.50684 43.5689 1.97554 41.5541 2.15181L39.2976 2.34923L39.7207 7.18467ZM45.7836 12.8098L42.1928 7.78046L39.7912 7.99057L40.2551 13.2934L39.288 13.378L38.26 1.62793L41.6932 1.32757C44.0303 1.12309 45.6846 1.83916 45.8849 4.12794C46.0484 5.99764 44.9985 7.17768 43.2334 7.60821L46.8797 12.7139L45.7836 12.8098Z" fill="#091420"/>
<path d="M34.0915 13.8331L33.0635 2.08301L34.0306 1.9984L35.0586 13.7485L34.0915 13.8331Z" fill="#091420"/>
<path d="M21.8427 14.9044L20.8147 3.1543L21.7818 3.06969L22.2274 8.16302L28.3201 7.62998L27.8744 2.53665L28.8577 2.45063L29.8857 14.2007L28.9024 14.2868L28.3934 8.46812L22.3007 9.00116L22.8098 14.8198L21.8427 14.9044Z" fill="#091420"/>
<path d="M15.8334 13.7404L14.8054 1.99023L15.7725 1.90563L16.8005 13.6557L15.8334 13.7404Z" fill="#091420"/>
<path d="M3.69315 13.5952L0.640381 2.20215L1.57808 1.95089L3.24057 8.15536L3.27183 8.14699L6.95426 0.510352L8.06387 0.213031L5.57293 5.41985L11.6324 11.4679L10.5697 11.7527L5.14461 6.32189L3.6007 9.49941L4.63086 13.344L3.69315 13.5952Z" fill="#091420"/>
<path d="M68.4919 34.573C65.639 34.8226 63.3994 32.6148 63.0723 28.8754C62.7465 25.1521 64.5743 22.6534 67.4273 22.4038C70.2802 22.1542 72.498 24.2989 72.8237 28.0222C73.1509 31.7616 71.3448 34.3234 68.4919 34.573ZM68.4158 33.7026C70.7368 33.4995 72.1036 31.301 71.8244 28.1096C71.5452 24.9183 69.8244 23.0711 67.5034 23.2742C65.1824 23.4772 63.7924 25.5965 64.0716 28.7879C64.3508 31.9793 66.0948 33.9057 68.4158 33.7026Z" fill="#091420"/>
<path d="M52.1291 33.3634L51.1011 21.6133L52.1004 21.5259L57.6101 29.1808L59.1391 31.4345L59.2197 31.4275C59.039 30.2902 58.8701 29.1031 58.77 27.9587L58.1608 20.9956L59.0796 20.9153L60.1076 32.6654L59.1082 32.7528L53.5971 25.0817L52.0857 22.8427L52.0212 22.8483C52.1683 23.9724 52.33 25.0789 52.4316 26.2394L53.0478 33.283L52.1291 33.3634Z" fill="#091420"/>
<path d="M43.9428 32.6715C41.8313 32.8562 39.8496 31.9251 39.5267 28.2341L38.8992 21.0615L39.8501 20.9783L40.472 28.0864C40.7399 31.1489 42.2387 31.9435 43.8667 31.8011C45.5268 31.6558 46.881 30.6116 46.613 27.5492L45.9912 20.4411L46.926 20.3593L47.5535 27.5318C47.8765 31.2229 46.0543 32.4867 43.9428 32.6715Z" fill="#091420"/>
<path d="M29.3146 31.3097L28.2866 19.5596L29.2537 19.475L29.8135 25.8739L29.8458 25.871L34.7983 18.9899L35.9427 18.8897L32.5855 23.5849L37.5026 30.5933L36.4066 30.6892L32.007 24.3989L29.9348 27.26L30.2817 31.2251L29.3146 31.3097Z" fill="#091420"/>
<path d="M20.9751 33.0603C18.1222 33.3099 15.8826 31.1021 15.5554 27.3627C15.2297 23.6394 17.0575 21.1407 19.9104 20.8911C22.7633 20.6415 24.9812 22.7862 25.3069 26.5095C25.6341 30.2489 23.828 32.8107 20.9751 33.0603ZM20.8989 32.1899C23.2199 31.9868 24.5868 29.7883 24.3076 26.5969C24.0284 23.4056 22.3076 21.5584 19.9866 21.7615C17.6655 21.9645 16.2755 24.0838 16.5547 27.2752C16.834 30.4666 18.5779 32.393 20.8989 32.1899Z" fill="#091420"/>
<path d="M9.48737 33.0444L8.53269 22.1324L4.84164 22.4553L4.76831 21.6172L13.1336 20.8853L13.207 21.7235L9.5159 22.0464L10.4706 32.9584L9.48737 33.0444Z" fill="#091420"/>
</svg>
